<svg xmlns="http://www.w3.org/2000/svg" viewBox="0 0 200 28" fill="none">
  <!-- GrooveLinx header logo — compact for topbar (200x28) -->

  <!-- G -->
  <path d="M2 14c0-6.7 5-12 11.5-12 4 0 7.3 1.8 9.3 4.5L19.5 9C18 7 16 6 13.5 6 9 6 6 9.5 6 14s3 8 7.5 8c2.5 0 4.5-1 5.8-2.5V16.5H14v-3.5h9v9c-2.3 2.8-5.5 4.3-9.5 4.3C7 26.3 2 20.7 2 14z" fill="#f1f5f9"/>
  <!-- R -->
  <path d="M27 2h8.5c5 0 8 2.8 8 7 0 3.3-1.8 5.5-4.8 6.5L44.5 26H39.5L34.5 16H31v10h-4V2zm8.3 10.5c2.5 0 4-1.5 4-3.5s-1.5-3.5-4-3.5H31V12.5h4.3z" fill="#f1f5f9"/>
  <!-- O -->
  <path d="M48 14c0-7 5.3-12 12-12s12 5 12 12-5.3 12-12 12-12-5-12-12zm19.5 0c0-4.5-3.3-8-7.5-8s-7.5 3.5-7.5 8 3.3 8 7.5 8 7.5-3.5 7.5-8z" fill="#f1f5f9"/>
  <!-- O -->
  <path d="M76 14c0-7 5.3-12 12-12s12 5 12 12-5.3 12-12 12-12-5-12-12zm19.5 0c0-4.5-3.3-8-7.5-8s-7.5 3.5-7.5 8 3.3 8 7.5 8 7.5-3.5 7.5-8z" fill="#f1f5f9"/>
  <!-- V -->
  <path d="M104 2h4.8l7.5 19 7.5-19h4.8l-10 24h-4.5L104 2z" fill="#f1f5f9"/>
  <!-- E -->
  <path d="M132 2h15v4h-10.5v6h9.5v3.5h-9.5v6.5h11v4h-15.5V2z" fill="#f1f5f9"/>

  <!-- L -->
  <path d="M155 2h4.5v20h10.5v4h-15V2z" fill="#f1f5f9"/>
  <!-- I -->
  <path d="M174 2h4.5v24H174V2z" fill="#f1f5f9"/>
  <!-- N -->
  <path d="M183 2h4.3l11 17V2h4.5v24h-4.3l-11-17v17H183V2z" fill="#f1f5f9"/>

  <!-- X = drumsticks (scaled for 28px height) -->
  <line x1="207" y1="1" x2="209" y2="4" stroke="#f1f5f9" stroke-width="1.3" stroke-linecap="round"/>
  <line x1="208.5" y1="3.5" x2="224.5" y2="23.5" stroke="#f1f5f9" stroke-width="2.3" stroke-linecap="round"/>
  <line x1="224" y1="23" x2="226.5" y2="26.5" stroke="#f1f5f9" stroke-width="1.3" stroke-linecap="round"/>

  <line x1="226.5" y1="1" x2="224.5" y2="4" stroke="#f1f5f9" stroke-width="1.3" stroke-linecap="round"/>
  <line x1="225" y1="3.5" x2="209" y2="23.5" stroke="#f1f5f9" stroke-width="2.3" stroke-linecap="round"/>
  <line x1="209.5" y1="23" x2="207" y2="26.5" stroke="#f1f5f9" stroke-width="1.3" stroke-linecap="round"/>

  <circle cx="216.8" cy="13.8" r="1" fill="#667eea" opacity="0.5"/>
</svg>
