<svg xmlns="http://www.w3.org/2000/svg" viewBox="0 0 480 56" fill="none">
  <!--
    GROOVE LINX wordmark — production version
    X = crossed drumsticks with taper
    All letterforms as vector paths (no font dependency)
    Geometric sans-serif, weight 800
  -->

  <!-- G -->
  <path d="M4 28c0-13.3 10-24 23-24 8 0 14.5 3.5 18.5 9l-6.5 5.5C36 14.5 32 12 27 12c-8.5 0-15 7-15 16s6.5 16 15 16c5 0 9-2 11.5-5V33H28v-7h18v18c-4.5 5.5-11 8.5-19 8.5C14 52.5 4 41.3 4 28z" fill="#f1f5f9"/>
  <!-- R -->
  <path d="M54 4h17c10 0 16 5.5 16 14 0 6.5-3.5 11-9.5 13L89 52H79L69 32h-6v20h-9V4zm16.5 21c5 0 8-3 8-7s-3-7-8-7H63v14h7.5z" fill="#f1f5f9"/>
  <!-- O -->
  <path d="M116 28c0-14 10.5-24 24-24s24 10 24 24-10.5 24-24 24-24-10-24-24zm39 0c0-9-6.5-16-15-16s-15 7-15 16 6.5 16 15 16 15-7 15-16z" fill="#f1f5f9"/>
  <!-- O -->
  <path d="M172 28c0-14 10.5-24 24-24s24 10 24 24-10.5 24-24 24-24-10-24-24zm39 0c0-9-6.5-16-15-16s-15 7-15 16 6.5 16 15 16 15-7 15-16z" fill="#f1f5f9"/>
  <!-- V -->
  <path d="M228 4h9.5l15 38 15-38H277l-20 48h-9L228 4z" fill="#f1f5f9"/>
  <!-- E -->
  <path d="M284 4h30v8h-21v12h19v7h-19v13h22v8h-31V4z" fill="#f1f5f9"/>

  <!-- L -->
  <path d="M330 4h9v40h21v8h-30V4z" fill="#f1f5f9"/>
  <!-- I -->
  <path d="M368 4h9v48h-9V4z" fill="#f1f5f9"/>
  <!-- N -->
  <path d="M386 4h8.5l22 34V4h9v48h-8.5l-22-34v34h-9V4z" fill="#f1f5f9"/>

  <!-- X = CROSSED DRUMSTICKS -->
  <!-- Stick 1: upper-left to lower-right -->
  <line x1="434" y1="2" x2="438" y2="8" stroke="#f1f5f9" stroke-width="2.5" stroke-linecap="round"/>
  <line x1="437" y1="7" x2="469" y2="47" stroke="#f1f5f9" stroke-width="4.5" stroke-linecap="round"/>
  <line x1="468" y1="46" x2="473" y2="53" stroke="#f1f5f9" stroke-width="2.5" stroke-linecap="round"/>
  <!-- Stick 2: upper-right to lower-left -->
  <line x1="473" y1="2" x2="469" y2="8" stroke="#f1f5f9" stroke-width="2.5" stroke-linecap="round"/>
  <line x1="470" y1="7" x2="438" y2="47" stroke="#f1f5f9" stroke-width="4.5" stroke-linecap="round"/>
  <line x1="439" y1="46" x2="434" y2="53" stroke="#f1f5f9" stroke-width="2.5" stroke-linecap="round"/>
  <!-- Accent dot at crossing -->
  <circle cx="453.5" cy="27.5" r="2" fill="#667eea" opacity="0.5"/>
</svg>
